<svg version="1.1" id="Layer_1" xmlns="http://www.w3.org/2000/svg" x="0" y="0" viewBox="0 0 511.997 511.997" xml:space="preserve"><circle cx="255.999" cy="255.999" r="255.999" fill="#fad24d"/><ellipse cx="255.999" cy="421.644" rx="182.283" ry="14.369" fill="#edb937"/><path d="M65.982 67.222h380.036c12.486 0 22.7 10.217 22.7 22.703V324.03H43.282V89.925c0-12.486 10.214-22.703 22.7-22.703z" fill="#666"/><path d="M58.695 308.614h394.607V89.922c0-3.979-3.308-7.287-7.287-7.287H65.979c-3.976 0-7.287 3.308-7.287 7.287v218.693h.003z" fill="#21d0c3"/><path d="M468.718 324.03v24.826c0 12.489-11.261 22.703-25.026 22.703H68.305c-13.765 0-25.026-10.214-25.026-22.703V324.03h425.439zm-327.48-208.502h263.69c4.142 0 7.528 3.389 7.528 7.528v185.561H99.546V123.056c0-4.142 3.386-7.528 7.528-7.528h34.167-.003z" fill="#fff"/><path d="M107.071 115.528h297.858c4.142 0 7.528 3.386 7.528 7.528v15.054H99.546v-15.054c0-4.142 3.386-7.528 7.528-7.528h-.003z" fill="#828282"/><path d="M226.384 123.325h163.62c1.115 0 2.022.913 2.022 2.022v3.751a2.03 2.03 0 0 1-2.022 2.022h-163.62a2.028 2.028 0 0 1-2.02-2.022v-3.751a2.026 2.026 0 0 1 2.02-2.022z" fill="#fff"/><path d="M117.332 121.983a4.333 4.333 0 1 1 0 8.668 4.335 4.335 0 1 1 0-8.668z" fill="#21d0c3"/><path d="M134.44 121.983a4.33 4.33 0 0 1 4.334 4.334 4.333 4.333 0 1 1-8.668 0 4.33 4.33 0 0 1 4.334-4.334z" fill="#edb937"/><path d="M151.552 121.983a4.333 4.333 0 1 1 0 8.668 4.335 4.335 0 1 1 0-8.668zm93.643 102.373h24.228l-58.622 84.258h-24.227z" fill="#ff5b62"/><path d="M269.424 224.355h-24.229l38.973 56.014h24.229l-38.97-56.014h-.003z" fill="#ed4c54"/><path d="M368.479 194.066l-60.085 86.305h-24.229l63.029-90.866-24.58-6.457 66.613-26.215-3.879 42.765-16.869-5.532z" fill="#ff5b62"/><path d="M179.936 157.805h75.091v3.722h-75.091v-3.722zm0 8.643h53.814v3.722h-53.814v-3.722z" fill="#dce3db"/><path fill="#edb937" d="M117.18 207.873h9.091v25.716h-9.091z"/><path fill="#ff5b62" d="M136.373 185.686h9.091v47.901h-9.091z"/><path fill="#21d0c3" d="M155.565 157.961h9.091v75.632h-9.091z"/><circle cx="255.999" cy="346.801" r="7.814" fill="#b6b6b8"/><path d="M305.065 407.271l36.095 11.564H170.836l29.123-11.564v-35.712h105.104v35.712h.002z" fill="#c2c2c4"/><path d="M305.065 407.271l-105.104-35.712h105.104v35.712z" fill="#b0b0b0"/><path d="M199.959 407.271h105.104l36.095 11.564v4.981H170.834v-4.981l29.123-11.564h.002z" fill="#ecf0f1"/><path d="M179.936 176.127h75.091v3.722h-75.091v-3.722zm0 8.643h53.814v3.722h-53.814v-3.722z" fill="#dce3db"/></svg>